<?xml version="1.0" encoding="UTF-8" standalone="no"?>
<svg xmlns="http://www.w3.org/2000/svg"
     xmlns:xlink="http://www.w3.org/1999/xlink"
     width="256px" height="256px" viewBox="0 0 256 256">
<title>/Users/insp/Dropbox/ITAM_CLASES/Calculo 3/Primavera 2018/Notas_yo_html/images/sumsquares1.svg</title>
<desc>
Creator: GL2PS 1.3.8, (C) 1999-2012 C. Geuzaine
For: Generated by rgl
CreationDate: Tue Jan  9 22:45:01 2018
</desc>
<defs>
</defs>
<g shape-rendering="crispEdges">
<polyline fill="none" stroke="#000000" stroke-width="1" points="133.621,8.07599 112.776,19.1451 133.621,8.07599"/>
<polyline fill="none" stroke="#000000" stroke-width="1" points="132.691,30.5682 151.414,43.5008"/>
<polyline fill="none" stroke="#000000" stroke-width="1" points="153.22,20.9668 133.621,8.07599"/>
<polyline fill="none" stroke="#000000" stroke-width="1" points="151.414,43.5008 132.691,30.5682"/>
<polyline fill="none" stroke="#000000" stroke-width="1" points="133.621,8.07599 153.22,20.9668"/>
<polyline fill="none" stroke="#000000" stroke-width="1" points="132.691,30.5682 151.414,43.5008 132.691,30.5682"/>
<polygon fill="#18bc9c" points="153.22,20.9668 112.776,19.1451 132.33,32.718"/>
<polygon fill="#18bc9c" points="153.22,20.9668 133.621,8.07599 112.776,19.1451"/>
<polygon fill="#18bc9c" points="151.414,43.5008 132.33,32.718 131.406,55.3361"/>
<polygon fill="#18bc9c" points="151.414,43.5008 153.22,20.9668 132.33,32.718"/>
<polyline fill="none" stroke="#000000" stroke-width="1" points="151.414,43.5008 131.406,55.3361"/>
<polyline fill="none" stroke="#000000" stroke-width="1" points="153.22,20.9668 151.414,43.5008"/>
<polyline fill="none" stroke="#000000" stroke-width="1" points="131.406,55.3361 151.414,43.5008"/>
<polyline fill="none" stroke="#000000" stroke-width="1" points="153.22,20.9668 132.33,32.718"/>
<polyline fill="none" stroke="#000000" stroke-width="1" points="151.414,43.5008 153.22,20.9668"/>
<polyline fill="none" stroke="#000000" stroke-width="1" points="132.33,32.718 153.22,20.9668"/>
<polyline fill="none" stroke="#000000" stroke-width="1" points="151.414,43.5008 131.406,55.3361 151.414,43.5008 131.406,55.3361 151.414,43.5008"/>
<polyline fill="none" stroke="#000000" stroke-width="1" points="197.839,158.791 201.403,143.026"/>
<polyline fill="none" stroke="#000000" stroke-width="1" points="188.508,92.1022 185.278,110.922 188.508,92.1022 168.624,77.7639"/>
<polyline fill="none" stroke="#000000" stroke-width="1" points="149.759,64.1602 168.624,77.7639 149.759,64.1602"/>
<polyline fill="none" stroke="#000000" stroke-width="1" points="182.309,128.224 185.278,110.922"/>
<polyline fill="none" stroke="#000000" stroke-width="1" points="201.403,143.026 221.496,158.602"/>
<polyline fill="none" stroke="#000000" stroke-width="1" points="185.278,110.922 182.309,128.224"/>
<polyline fill="none" stroke="#000000" stroke-width="1" points="205.275,125.903 185.278,110.922"/>
<polyline fill="none" stroke="#000000" stroke-width="1" points="201.403,143.026 205.275,125.903"/>
<polyline fill="none" stroke="#000000" stroke-width="1" points="185.278,110.922 182.309,128.224 185.278,110.922 205.275,125.903 201.403,143.026"/>
<polyline fill="none" stroke="#000000" stroke-width="1" points="221.496,158.602 217.025,174.128"/>
<polyline fill="none" stroke="#000000" stroke-width="1" points="149.759,64.1602 168.624,77.7639 149.759,64.1602"/>
<polyline fill="none" stroke="#000000" stroke-width="1" points="171.166,57.1437 168.624,77.7639"/>
<polyline fill="none" stroke="#000000" stroke-width="1" points="151.414,43.5008 171.166,57.1437"/>
<polyline fill="none" stroke="#000000" stroke-width="1" points="168.624,77.7639 188.508,92.1022"/>
<polyline fill="none" stroke="#000000" stroke-width="1" points="168.624,77.7639 171.166,57.1437 151.414,43.5008"/>
<polyline fill="none" stroke="#000000" stroke-width="1" points="179.57,144.186 182.309,128.224 179.57,144.186"/>
<polyline fill="none" stroke="#000000" stroke-width="1" points="197.839,158.791 201.403,143.026"/>
<polyline fill="none" stroke="#000000" stroke-width="1" points="182.309,128.224 179.57,144.186 182.309,128.224"/>
<polyline fill="none" stroke="#000000" stroke-width="1" points="201.403,143.026 197.839,158.791"/>
<polyline fill="none" stroke="#000000" stroke-width="1" points="221.496,158.602 201.403,143.026"/>
<polyline fill="none" stroke="#000000" stroke-width="1" points="217.025,174.128 221.496,158.602"/>
<polyline fill="none" stroke="#000000" stroke-width="1" points="201.403,143.026 197.839,158.791"/>
<polygon fill="#18bc9c" points="217.025,174.128 203.801,173.194 199.956,188.503"/>
<polygon fill="#18bc9c" points="217.025,174.128 221.496,158.602 203.801,173.194"/>
<polyline fill="none" stroke="#000000" stroke-width="1" points="217.025,174.128 199.956,188.503 217.025,174.128"/>
<polygon fill="#18bc9c" points="221.496,158.602 201.403,143.026 183.655,156.838"/>
<polygon fill="#18bc9c" points="221.496,158.602 183.655,156.838 203.801,173.194"/>
<polygon fill="#18bc9c" points="201.403,143.026 186.845,139.867 183.655,156.838"/>
<polygon fill="#18bc9c" points="201.403,143.026 205.275,125.903 186.845,139.867"/>
<polyline fill="none" stroke="#000000" stroke-width="1" points="183.655,156.838 201.403,143.026 183.655,156.838"/>
<polyline fill="none" stroke="#000000" stroke-width="1" points="201.403,143.026 183.655,156.838"/>
<polyline fill="none" stroke="#000000" stroke-width="1" points="201.403,143.026 183.655,156.838 201.403,143.026"/>
<polyline fill="none" stroke="#000000" stroke-width="1" points="183.655,156.838 201.403,143.026"/>
<polyline fill="none" stroke="#000000" stroke-width="1" points="203.801,173.194 221.496,158.602 203.801,173.194"/>
<polygon fill="#18bc9c" points="205.275,125.903 166.816,124.124 186.845,139.867"/>
<polygon fill="#18bc9c" points="205.275,125.903 185.278,110.922 166.816,124.124"/>
<polygon fill="#18bc9c" points="171.166,57.1437 151.414,43.5008 131.406,55.3361"/>
<polygon fill="#18bc9c" points="171.166,57.1437 131.406,55.3361 151.141,69.6916"/>
<polygon fill="#18bc9c" points="168.624,77.7639 171.166,57.1437 151.141,69.6916"/>
<polygon fill="#18bc9c" points="168.624,77.7639 151.141,69.6916 149.409,90.3089"/>
<polyline fill="none" stroke="#000000" stroke-width="1" points="149.409,90.3089 168.624,77.7639"/>
<polyline fill="none" stroke="#000000" stroke-width="1" points="151.141,69.6916 171.166,57.1437"/>
<polyline fill="none" stroke="#000000" stroke-width="1" points="149.409,90.3089 168.624,77.7639"/>
<polyline fill="none" stroke="#000000" stroke-width="1" points="171.166,57.1437 151.141,69.6916"/>
<polyline fill="none" stroke="#000000" stroke-width="1" points="168.624,77.7639 149.409,90.3089"/>
<polyline fill="none" stroke="#000000" stroke-width="1" points="168.624,77.7639 149.409,90.3089 168.624,77.7639 149.409,90.3089"/>
<polygon fill="#18bc9c" points="188.508,92.1022 168.624,77.7639 149.409,90.3089"/>
<polygon fill="#18bc9c" points="188.508,92.1022 149.409,90.3089 169.302,105.386"/>
<polygon fill="#18bc9c" points="185.278,110.922 169.302,105.386 166.816,124.124"/>
<polygon fill="#18bc9c" points="185.278,110.922 188.508,92.1022 169.302,105.386"/>
<polyline fill="none" stroke="#000000" stroke-width="1" points="185.278,110.922 166.816,124.124"/>
<polyline fill="none" stroke="#000000" stroke-width="1" points="185.278,110.922 166.816,124.124"/>
<polyline fill="none" stroke="#000000" stroke-width="1" points="185.278,110.922 166.816,124.124"/>
<polyline fill="none" stroke="#000000" stroke-width="1" points="188.508,92.1022 169.302,105.386 188.508,92.1022"/>
<polyline fill="none" stroke="#000000" stroke-width="1" points="166.816,124.124 185.278,110.922"/>
<polyline fill="none" stroke="#000000" stroke-width="1" points="166.816,124.124 185.278,110.922"/>
<polyline fill="none" stroke="#000000" stroke-width="1" points="166.816,124.124 185.278,110.922"/>
<polyline fill="none" stroke="#000000" stroke-width="1" points="186.845,139.867 205.275,125.903 186.845,139.867"/>
<polygon fill="#18bc9c" points="132.33,32.718 112.776,19.1451 112.726,41.7477"/>
<polygon fill="#18bc9c" points="132.33,32.718 112.726,41.7477 131.406,55.3361"/>
<polyline fill="none" stroke="#000000" stroke-width="1" points="203.801,173.194 199.956,188.503"/>
<polyline fill="none" stroke="#000000" stroke-width="1" points="130.561,76.0242 149.409,90.3089 130.561,76.0242"/>
<polyline fill="none" stroke="#000000" stroke-width="1" points="149.409,90.3089 169.302,105.386 149.409,90.3089"/>
<polyline fill="none" stroke="#000000" stroke-width="1" points="147.822,109.195 166.816,124.124 169.302,105.386 166.816,124.124 147.822,109.195"/>
<polyline fill="none" stroke="#000000" stroke-width="1" points="130.561,76.0242 149.409,90.3089 130.561,76.0242"/>
<polyline fill="none" stroke="#000000" stroke-width="1" points="149.409,90.3089 130.561,76.0242 149.409,90.3089"/>
<polyline fill="none" stroke="#000000" stroke-width="1" points="151.141,69.6916 149.409,90.3089"/>
<polyline fill="none" stroke="#000000" stroke-width="1" points="131.406,55.3361 151.141,69.6916"/>
<polyline fill="none" stroke="#000000" stroke-width="1" points="169.302,105.386 149.409,90.3089"/>
<polyline fill="none" stroke="#000000" stroke-width="1" points="166.816,124.124 169.302,105.386"/>
<polyline fill="none" stroke="#000000" stroke-width="1" points="149.409,90.3089 169.302,105.386 166.816,124.124"/>
<polyline fill="none" stroke="#000000" stroke-width="1" points="149.409,90.3089 151.141,69.6916 131.406,55.3361"/>
<polyline fill="none" stroke="#000000" stroke-width="1" points="112.726,41.7477 131.406,55.3361"/>
<polyline fill="none" stroke="#000000" stroke-width="1" points="147.822,109.195 166.816,124.124 147.822,109.195"/>
<polyline fill="none" stroke="#000000" stroke-width="1" points="166.816,124.124 186.845,139.867 166.816,124.124"/>
<polyline fill="none" stroke="#000000" stroke-width="1" points="183.655,156.838 186.845,139.867 183.655,156.838"/>
<polyline fill="none" stroke="#000000" stroke-width="1" points="131.406,55.3361 112.726,41.7477"/>
<polyline fill="none" stroke="#000000" stroke-width="1" points="149.409,90.3089 130.561,76.0242"/>
<polyline fill="none" stroke="#000000" stroke-width="1" points="151.141,69.6916 149.409,90.3089 151.141,69.6916"/>
<polyline fill="none" stroke="#000000" stroke-width="1" points="166.816,124.124 147.822,109.195 166.816,124.124"/>
<polyline fill="none" stroke="#000000" stroke-width="1" points="130.561,76.0242 149.409,90.3089"/>
<polyline fill="none" stroke="#000000" stroke-width="1" points="186.845,139.867 166.816,124.124"/>
<polyline fill="none" stroke="#000000" stroke-width="1" points="183.655,156.838 186.845,139.867"/>
<polyline fill="none" stroke="#000000" stroke-width="1" points="166.816,124.124 186.845,139.867 183.655,156.838"/>
<polyline fill="none" stroke="#000000" stroke-width="1" points="151.141,69.6916 131.406,55.3361 151.141,69.6916"/>
<polyline fill="none" stroke="#000000" stroke-width="1" points="180.725,172.428 183.655,156.838 180.725,172.428"/>
<polyline fill="none" stroke="#000000" stroke-width="1" points="131.406,55.3361 112.726,41.7477 131.406,55.3361"/>
<polyline fill="none" stroke="#000000" stroke-width="1" points="183.655,156.838 203.801,173.194 183.655,156.838 180.725,172.428"/>
<polyline fill="none" stroke="#000000" stroke-width="1" points="199.956,188.503 203.801,173.194 199.956,188.503"/>
<polyline fill="none" stroke="#000000" stroke-width="1" points="180.725,172.428 183.655,156.838"/>
<polyline fill="none" stroke="#000000" stroke-width="1" points="131.406,55.3361 112.726,41.7477 112.776,19.1451"/>
<polyline fill="none" stroke="#000000" stroke-width="1" points="132.33,32.718 131.406,55.3361 132.33,32.718"/>
<polyline fill="none" stroke="#000000" stroke-width="1" points="112.726,41.7477 131.406,55.3361"/>
<polyline fill="none" stroke="#000000" stroke-width="1" points="112.776,19.1451 112.726,41.7477"/>
<polyline fill="none" stroke="#000000" stroke-width="1" points="132.33,32.718 112.776,19.1451 132.33,32.718"/>
<polyline fill="none" stroke="#000000" stroke-width="1" points="180.725,172.428 183.655,156.838 180.725,172.428"/>
<polyline fill="none" stroke="#000000" stroke-width="1" points="203.801,173.194 183.655,156.838"/>
<polyline fill="none" stroke="#000000" stroke-width="1" points="199.956,188.503 203.801,173.194"/>
<polyline fill="none" stroke="#000000" stroke-width="1" points="183.655,156.838 180.725,172.428 183.655,156.838 203.801,173.194"/>
<polyline fill="none" stroke="#000000" stroke-width="1" points="166.816,124.124 147.822,109.195 166.816,124.124"/>
<polygon fill="#18bc9c" points="199.956,188.503 185.149,188.576 182.002,203.623"/>
<polygon fill="#18bc9c" points="199.956,188.503 203.801,173.194 185.149,188.576"/>
<polyline fill="none" stroke="#000000" stroke-width="1" points="182.002,203.623 199.956,188.503 182.002,203.623"/>
<polygon fill="#18bc9c" points="203.801,173.194 164.972,171.376 185.149,188.576"/>
<polygon fill="#18bc9c" points="203.801,173.194 183.655,156.838 164.972,171.376"/>
<polygon fill="#18bc9c" points="149.409,90.3089 151.141,69.6916 129.973,82.9555"/>
<polygon fill="#18bc9c" points="149.409,90.3089 129.973,82.9555 129.147,103.538"/>
<polyline fill="none" stroke="#000000" stroke-width="1" points="149.409,90.3089 129.147,103.538 149.409,90.3089"/>
<polyline fill="none" stroke="#000000" stroke-width="1" points="129.147,103.538 149.409,90.3089 129.147,103.538"/>
<polyline fill="none" stroke="#000000" stroke-width="1" points="149.409,90.3089 129.147,103.538 149.409,90.3089"/>
<polygon fill="#18bc9c" points="169.302,105.386 149.409,90.3089 129.147,103.538"/>
<polygon fill="#18bc9c" points="169.302,105.386 129.147,103.538 149.019,119.414"/>
<polygon fill="#18bc9c" points="166.816,124.124 169.302,105.386 149.019,119.414"/>
<polygon fill="#18bc9c" points="166.816,124.124 149.019,119.414 147.364,138.033"/>
<polyline fill="none" stroke="#000000" stroke-width="1" points="166.816,124.124 147.364,138.033"/>
<polyline fill="none" stroke="#000000" stroke-width="1" points="169.302,105.386 149.019,119.414"/>
<polyline fill="none" stroke="#000000" stroke-width="1" points="147.364,138.033 166.816,124.124"/>
<polyline fill="none" stroke="#000000" stroke-width="1" points="149.019,119.414 169.302,105.386"/>
<polyline fill="none" stroke="#000000" stroke-width="1" points="166.816,124.124 147.364,138.033"/>
<polyline fill="none" stroke="#000000" stroke-width="1" points="166.816,124.124 147.364,138.033 166.816,124.124"/>
<polyline fill="none" stroke="#000000" stroke-width="1" points="147.364,138.033 166.816,124.124"/>
<polygon fill="#18bc9c" points="186.845,139.867 166.816,124.124 147.364,138.033"/>
<polygon fill="#18bc9c" points="186.845,139.867 147.364,138.033 167.4,154.599"/>
<polygon fill="#18bc9c" points="183.655,156.838 167.4,154.599 164.972,171.376"/>
<polygon fill="#18bc9c" points="183.655,156.838 186.845,139.867 167.4,154.599"/>
<polyline fill="none" stroke="#000000" stroke-width="1" points="183.655,156.838 164.972,171.376"/>
<polyline fill="none" stroke="#000000" stroke-width="1" points="183.655,156.838 164.972,171.376"/>
<polyline fill="none" stroke="#000000" stroke-width="1" points="183.655,156.838 164.972,171.376 183.655,156.838"/>
<polyline fill="none" stroke="#000000" stroke-width="1" points="186.845,139.867 167.4,154.599"/>
<polyline fill="none" stroke="#000000" stroke-width="1" points="164.972,171.376 183.655,156.838"/>
<polyline fill="none" stroke="#000000" stroke-width="1" points="167.4,154.599 186.845,139.867"/>
<polyline fill="none" stroke="#000000" stroke-width="1" points="164.972,171.376 183.655,156.838"/>
<polyline fill="none" stroke="#000000" stroke-width="1" points="185.149,188.576 203.801,173.194 185.149,188.576"/>
<polygon fill="#18bc9c" points="131.406,55.3361 112.726,41.7477 91.6835,53.5303"/>
<polygon fill="#18bc9c" points="151.141,69.6916 131.406,55.3361 110.288,67.8278"/>
<polygon fill="#18bc9c" points="151.141,69.6916 110.288,67.8278 129.973,82.9555"/>
<polygon fill="#18bc9c" points="131.406,55.3361 91.6835,53.5303 110.288,67.8278"/>
<polyline fill="none" stroke="#000000" stroke-width="1" points="151.141,69.6916 129.973,82.9555 151.141,69.6916"/>
<polyline fill="none" stroke="#000000" stroke-width="1" points="131.406,55.3361 110.288,67.8278 131.406,55.3361"/>
<polyline fill="none" stroke="#000000" stroke-width="1" points="110.288,67.8278 131.406,55.3361 110.288,67.8278"/>
<polyline fill="none" stroke="#000000" stroke-width="1" points="112.726,41.7477 91.6835,53.5303 112.726,41.7477"/>
<polygon fill="#18bc9c" points="129.973,82.9555 110.288,67.8278 110.346,88.5172"/>
<polygon fill="#18bc9c" points="110.288,67.8278 92.5332,74.286 110.346,88.5172"/>
<polygon fill="#18bc9c" points="110.288,67.8278 91.6835,53.5303 92.5332,74.286"/>
<polygon fill="#18bc9c" points="129.973,82.9555 110.346,88.5172 129.147,103.538"/>
<polyline fill="none" stroke="#000000" stroke-width="1" points="164.972,171.376 185.149,188.576"/>
<polyline fill="none" stroke="#000000" stroke-width="1" points="147.364,138.033 167.4,154.599"/>
<polyline fill="none" stroke="#000000" stroke-width="1" points="164.972,171.376 145.849,155.074"/>
<polyline fill="none" stroke="#000000" stroke-width="1" points="164.972,171.376 167.4,154.599 164.972,171.376"/>
<polyline fill="none" stroke="#000000" stroke-width="1" points="182.002,203.623 185.149,188.576"/>
<polyline fill="none" stroke="#000000" stroke-width="1" points="145.849,155.074 164.972,171.376"/>
<polyline fill="none" stroke="#000000" stroke-width="1" points="147.364,138.033 128.391,122.346"/>
<polyline fill="none" stroke="#000000" stroke-width="1" points="129.147,103.538 110.346,88.5172"/>
<polyline fill="none" stroke="#000000" stroke-width="1" points="147.364,138.033 128.391,122.346"/>
<polyline fill="none" stroke="#000000" stroke-width="1" points="149.019,119.414 147.364,138.033"/>
<polyline fill="none" stroke="#000000" stroke-width="1" points="110.346,88.5172 110.288,67.8278"/>
<polyline fill="none" stroke="#000000" stroke-width="1" points="129.973,82.9555 129.147,103.538 129.973,82.9555"/>
<polyline fill="none" stroke="#000000" stroke-width="1" points="110.346,88.5172 129.147,103.538"/>
<polyline fill="none" stroke="#000000" stroke-width="1" points="110.288,67.8278 110.346,88.5172"/>
<polyline fill="none" stroke="#000000" stroke-width="1" points="129.973,82.9555 110.288,67.8278 129.973,82.9555"/>
<polyline fill="none" stroke="#000000" stroke-width="1" points="110.346,88.5172 92.5332,74.286"/>
<polyline fill="none" stroke="#000000" stroke-width="1" points="164.972,171.376 185.149,188.576 182.002,203.623"/>
<polyline fill="none" stroke="#000000" stroke-width="1" points="92.5332,74.286 91.6835,53.5303"/>
<polyline fill="none" stroke="#000000" stroke-width="1" points="128.391,122.346 147.364,138.033"/>
<polyline fill="none" stroke="#000000" stroke-width="1" points="185.149,188.576 164.972,171.376"/>
<polyline fill="none" stroke="#000000" stroke-width="1" points="185.149,188.576 182.002,203.623"/>
<polyline fill="none" stroke="#000000" stroke-width="1" points="164.972,171.376 167.4,154.599"/>
<polyline fill="none" stroke="#000000" stroke-width="1" points="110.288,67.8278 110.346,88.5172"/>
<polyline fill="none" stroke="#000000" stroke-width="1" points="145.849,155.074 164.972,171.376"/>
<polyline fill="none" stroke="#000000" stroke-width="1" points="110.346,88.5172 110.288,67.8278"/>
<polyline fill="none" stroke="#000000" stroke-width="1" points="167.4,154.599 147.364,138.033 167.4,154.599"/>
<polyline fill="none" stroke="#000000" stroke-width="1" points="92.5332,74.286 110.346,88.5172"/>
<polyline fill="none" stroke="#000000" stroke-width="1" points="149.019,119.414 147.364,138.033"/>
<polyline fill="none" stroke="#000000" stroke-width="1" points="91.6835,53.5303 92.5332,74.286"/>
<polyline fill="none" stroke="#000000" stroke-width="1" points="128.391,122.346 147.364,138.033"/>
<polyline fill="none" stroke="#000000" stroke-width="1" points="129.147,103.538 149.019,119.414"/>
<polyline fill="none" stroke="#000000" stroke-width="1" points="147.364,138.033 149.019,119.414"/>
<polyline fill="none" stroke="#000000" stroke-width="1" points="164.972,171.376 145.849,155.074"/>
<polyline fill="none" stroke="#000000" stroke-width="1" points="110.288,67.8278 91.6835,53.5303"/>
<polyline fill="none" stroke="#000000" stroke-width="1" points="145.849,155.074 164.972,171.376"/>
<polyline fill="none" stroke="#000000" stroke-width="1" points="91.6835,53.5303 110.288,67.8278"/>
<polyline fill="none" stroke="#000000" stroke-width="1" points="149.019,119.414 129.147,103.538"/>
<polyline fill="none" stroke="#000000" stroke-width="1" points="110.346,88.5172 129.147,103.538"/>
<polyline fill="none" stroke="#000000" stroke-width="1" points="185.149,188.576 164.972,171.376"/>
<polyline fill="none" stroke="#000000" stroke-width="1" points="182.002,203.623 185.149,188.576"/>
<polyline fill="none" stroke="#000000" stroke-width="1" points="129.147,103.538 110.346,88.5172"/>
<polyline fill="none" stroke="#000000" stroke-width="1" points="92.5332,74.286 110.346,88.5172 92.5332,74.286"/>
<polyline fill="none" stroke="#000000" stroke-width="1" points="147.364,138.033 128.391,122.346"/>
<polyline fill="none" stroke="#000000" stroke-width="1" points="147.364,138.033 149.019,119.414"/>
<polyline fill="none" stroke="#000000" stroke-width="1" points="128.391,122.346 147.364,138.033"/>
<polyline fill="none" stroke="#000000" stroke-width="1" points="149.019,119.414 129.147,103.538 149.019,119.414"/>
<polyline fill="none" stroke="#000000" stroke-width="1" points="129.147,103.538 110.346,88.5172 129.147,103.538"/>
<polyline fill="none" stroke="#000000" stroke-width="1" points="110.346,88.5172 92.5332,74.286 110.346,88.5172"/>
<polyline fill="none" stroke="#000000" stroke-width="1" points="128.391,122.346 147.364,138.033"/>
<polyline fill="none" stroke="#000000" stroke-width="1" points="167.4,154.599 147.364,138.033"/>
<polyline fill="none" stroke="#000000" stroke-width="1" points="145.849,155.074 164.972,171.376 145.849,155.074"/>
<polyline fill="none" stroke="#000000" stroke-width="1" points="164.972,171.376 145.849,155.074"/>
<polyline fill="none" stroke="#000000" stroke-width="1" points="167.4,154.599 164.972,171.376"/>
<polyline fill="none" stroke="#000000" stroke-width="1" points="147.364,138.033 128.391,122.346"/>
<polyline fill="none" stroke="#000000" stroke-width="1" points="71.3196,86.7272 92.5332,74.286 71.3196,86.7272"/>
<polygon fill="#18bc9c" points="110.346,88.5172 71.3196,86.7272 89.0298,101.691"/>
<polygon fill="#18bc9c" points="110.346,88.5172 92.5332,74.286 71.3196,86.7272"/>
<polyline fill="none" stroke="#000000" stroke-width="1" points="89.0298,101.691 110.346,88.5172 89.0298,101.691 110.346,88.5172 89.0298,101.691"/>
<polygon fill="#18bc9c" points="129.147,103.538 89.0298,101.691 107.749,117.507"/>
<polygon fill="#18bc9c" points="129.147,103.538 110.346,88.5172 89.0298,101.691"/>
<polyline fill="none" stroke="#000000" stroke-width="1" points="107.749,117.507 129.147,103.538"/>
<polyline fill="none" stroke="#000000" stroke-width="1" points="107.749,117.507 129.147,103.538 107.749,117.507"/>
<polyline fill="none" stroke="#000000" stroke-width="1" points="129.147,103.538 107.749,117.507"/>
<polygon fill="#18bc9c" points="149.019,119.414 129.147,103.538 107.749,117.507"/>
<polygon fill="#18bc9c" points="149.019,119.414 107.749,117.507 127.567,134.252"/>
<polygon fill="#18bc9c" points="147.364,138.033 127.567,134.252 126.842,152.709"/>
<polygon fill="#18bc9c" points="147.364,138.033 149.019,119.414 127.567,134.252"/>
<polyline fill="none" stroke="#000000" stroke-width="1" points="147.364,138.033 126.842,152.709 147.364,138.033"/>
<polyline fill="none" stroke="#000000" stroke-width="1" points="126.842,152.709 147.364,138.033"/>
<polyline fill="none" stroke="#000000" stroke-width="1" points="149.019,119.414 127.567,134.252 149.019,119.414"/>
<polyline fill="none" stroke="#000000" stroke-width="1" points="147.364,138.033 126.842,152.709 147.364,138.033 126.842,152.709"/>
<polygon fill="#18bc9c" points="167.4,154.599 126.842,152.709 146.854,170.166"/>
<polygon fill="#18bc9c" points="167.4,154.599 147.364,138.033 126.842,152.709"/>
<polygon fill="#18bc9c" points="164.972,171.376 146.854,170.166 145.279,186.701"/>
<polygon fill="#18bc9c" points="164.972,171.376 167.4,154.599 146.854,170.166"/>
<polyline fill="none" stroke="#000000" stroke-width="1" points="167.4,154.599 146.854,170.166"/>
<polyline fill="none" stroke="#000000" stroke-width="1" points="145.279,186.701 164.972,171.376"/>
<polyline fill="none" stroke="#000000" stroke-width="1" points="145.279,186.701 164.972,171.376"/>
<polyline fill="none" stroke="#000000" stroke-width="1" points="146.854,170.166 167.4,154.599"/>
<polyline fill="none" stroke="#000000" stroke-width="1" points="164.972,171.376 145.279,186.701 164.972,171.376 145.279,186.701"/>
<polyline fill="none" stroke="#000000" stroke-width="1" points="164.972,171.376 145.279,186.701"/>
<polygon fill="#18bc9c" points="185.149,188.576 145.279,186.701 165.459,204.813"/>
<polygon fill="#18bc9c" points="185.149,188.576 164.972,171.376 145.279,186.701"/>
<polygon fill="#18bc9c" points="182.002,203.623 185.149,188.576 165.459,204.813"/>
<polygon fill="#18bc9c" points="182.002,203.623 165.459,204.813 163.094,219.547"/>
<polyline fill="none" stroke="#000000" stroke-width="1" points="182.002,203.623 163.094,219.547"/>
<polyline fill="none" stroke="#000000" stroke-width="1" points="185.149,188.576 165.459,204.813"/>
<polyline fill="none" stroke="#000000" stroke-width="1" points="163.094,219.547 182.002,203.623"/>
<polyline fill="none" stroke="#000000" stroke-width="1" points="165.459,204.813 185.149,188.576"/>
<polygon fill="#18bc9c" points="89.0298,101.691 71.3196,86.7272 73.0094,105.747"/>
<polygon fill="#18bc9c" points="89.0298,101.691 73.0094,105.747 90.0019,120.571"/>
<polygon fill="#18bc9c" points="107.749,117.507 89.0298,101.691 90.0019,120.571"/>
<polygon fill="#18bc9c" points="107.749,117.507 90.0019,120.571 107.92,136.202"/>
<polygon fill="#18bc9c" points="127.567,134.252 107.749,117.507 107.92,136.202"/>
<polygon fill="#18bc9c" points="127.567,134.252 107.92,136.202 126.842,152.709"/>
<polyline fill="none" stroke="#000000" stroke-width="1" points="108.076,153.313 126.179,169.56"/>
<polyline fill="none" stroke="#000000" stroke-width="1" points="126.842,152.709 146.854,170.166 126.842,152.709"/>
<polyline fill="none" stroke="#000000" stroke-width="1" points="126.179,169.56 145.279,186.701 146.854,170.166 145.279,186.701"/>
<polyline fill="none" stroke="#000000" stroke-width="1" points="107.92,136.202 126.842,152.709"/>
<polyline fill="none" stroke="#000000" stroke-width="1" points="145.279,186.701 126.179,169.56"/>
<polyline fill="none" stroke="#000000" stroke-width="1" points="108.076,153.313 126.179,169.56"/>
<polyline fill="none" stroke="#000000" stroke-width="1" points="126.842,152.709 107.92,136.202 126.842,152.709"/>
<polyline fill="none" stroke="#000000" stroke-width="1" points="90.0019,120.571 73.0094,105.747 90.0019,120.571"/>
<polyline fill="none" stroke="#000000" stroke-width="1" points="90.8937,137.892 74.5631,123.236 90.8937,137.892"/>
<polyline fill="none" stroke="#000000" stroke-width="1" points="108.076,153.313 90.8937,137.892"/>
<polyline fill="none" stroke="#000000" stroke-width="1" points="107.92,136.202 90.0019,120.571 107.92,136.202"/>
<polyline fill="none" stroke="#000000" stroke-width="1" points="108.076,153.313 90.8937,137.892 108.076,153.313"/>
<polyline fill="none" stroke="#000000" stroke-width="1" points="90.8937,137.892 108.076,153.313"/>
<polyline fill="none" stroke="#000000" stroke-width="1" points="90.8937,137.892 74.5631,123.236"/>
<polyline fill="none" stroke="#000000" stroke-width="1" points="107.92,136.202 90.0019,120.571 107.92,136.202"/>
<polyline fill="none" stroke="#000000" stroke-width="1" points="126.842,152.709 107.92,136.202 126.842,152.709"/>
<polyline fill="none" stroke="#000000" stroke-width="1" points="126.179,169.56 108.076,153.313"/>
<polyline fill="none" stroke="#000000" stroke-width="1" points="146.854,170.166 126.842,152.709"/>
<polyline fill="none" stroke="#000000" stroke-width="1" points="145.279,186.701 146.854,170.166"/>
<polyline fill="none" stroke="#000000" stroke-width="1" points="126.842,152.709 146.854,170.166 145.279,186.701 126.179,169.56 145.279,186.701"/>
<polyline fill="none" stroke="#000000" stroke-width="1" points="74.5631,123.236 90.8937,137.892"/>
<polyline fill="none" stroke="#000000" stroke-width="1" points="90.0019,120.571 73.0094,105.747 90.0019,120.571"/>
<polyline fill="none" stroke="#000000" stroke-width="1" points="90.8937,137.892 74.5631,123.236"/>
<polyline fill="none" stroke="#000000" stroke-width="1" points="90.8937,137.892 108.076,153.313 90.8937,137.892"/>
<polyline fill="none" stroke="#000000" stroke-width="1" points="126.842,152.709 107.92,136.202 107.749,117.507"/>
<polyline fill="none" stroke="#000000" stroke-width="1" points="108.076,153.313 126.179,169.56 108.076,153.313"/>
<polyline fill="none" stroke="#000000" stroke-width="1" points="127.567,134.252 126.842,152.709 127.567,134.252"/>
<polyline fill="none" stroke="#000000" stroke-width="1" points="126.179,169.56 108.076,153.313"/>
<polyline fill="none" stroke="#000000" stroke-width="1" points="107.749,117.507 107.92,136.202"/>
<polyline fill="none" stroke="#000000" stroke-width="1" points="127.567,134.252 107.749,117.507 127.567,134.252"/>
<polyline fill="none" stroke="#000000" stroke-width="1" points="126.179,169.56 145.279,186.701 126.179,169.56"/>
<polyline fill="none" stroke="#000000" stroke-width="1" points="107.92,136.202 90.0019,120.571 89.0298,101.691"/>
<polyline fill="none" stroke="#000000" stroke-width="1" points="145.279,186.701 165.459,204.813 145.279,186.701"/>
<polyline fill="none" stroke="#000000" stroke-width="1" points="163.094,219.547 165.459,204.813 163.094,219.547"/>
<polyline fill="none" stroke="#000000" stroke-width="1" points="107.749,117.507 107.92,136.202 107.749,117.507"/>
<polyline fill="none" stroke="#000000" stroke-width="1" points="90.0019,120.571 107.92,136.202"/>
<polyline fill="none" stroke="#000000" stroke-width="1" points="89.0298,101.691 90.0019,120.571"/>
<polyline fill="none" stroke="#000000" stroke-width="1" points="107.749,117.507 89.0298,101.691 107.749,117.507"/>
<polyline fill="none" stroke="#000000" stroke-width="1" points="90.8937,137.892 74.5631,123.236 90.8937,137.892"/>
<polyline fill="none" stroke="#000000" stroke-width="1" points="90.0019,120.571 73.0094,105.747 71.3196,86.7272"/>
<polyline fill="none" stroke="#000000" stroke-width="1" points="108.076,153.313 90.8937,137.892 108.076,153.313"/>
<polyline fill="none" stroke="#000000" stroke-width="1" points="89.0298,101.691 90.0019,120.571 89.0298,101.691"/>
<polyline fill="none" stroke="#000000" stroke-width="1" points="73.0094,105.747 90.0019,120.571"/>
<polyline fill="none" stroke="#000000" stroke-width="1" points="71.3196,86.7272 73.0094,105.747"/>
<polyline fill="none" stroke="#000000" stroke-width="1" points="89.0298,101.691 71.3196,86.7272 89.0298,101.691"/>
<polyline fill="none" stroke="#000000" stroke-width="1" points="126.179,169.56 108.076,153.313 126.179,169.56"/>
<polyline fill="none" stroke="#000000" stroke-width="1" points="145.279,186.701 126.179,169.56 145.279,186.701"/>
<polyline fill="none" stroke="#000000" stroke-width="1" points="165.459,204.813 145.279,186.701"/>
<polyline fill="none" stroke="#000000" stroke-width="1" points="163.094,219.547 165.459,204.813"/>
<polyline fill="none" stroke="#000000" stroke-width="1" points="145.279,186.701 165.459,204.813 163.094,219.547"/>
<polyline fill="none" stroke="#000000" stroke-width="1" points="74.5631,123.236 90.8937,137.892"/>
<polyline fill="none" stroke="#000000" stroke-width="1" points="51.6474,118.797 73.0094,105.747 51.6474,118.797"/>
<polygon fill="#18bc9c" points="90.0019,120.571 51.6474,118.797 68.513,134.372"/>
<polygon fill="#18bc9c" points="90.0019,120.571 73.0094,105.747 51.6474,118.797"/>
<polygon fill="#18bc9c" points="68.513,134.372 51.6474,118.797 54.1214,136.183"/>
<polygon fill="#18bc9c" points="68.513,134.372 54.1214,136.183 70.3374,151.553"/>
<polyline fill="none" stroke="#000000" stroke-width="1" points="51.6474,118.797 54.1214,136.183 70.3374,151.553 54.1214,136.183 70.3374,151.553"/>
<polyline fill="none" stroke="#000000" stroke-width="1" points="54.1214,136.183 51.6474,118.797"/>
<polyline fill="none" stroke="#000000" stroke-width="1" points="68.513,134.372 51.6474,118.797"/>
<polyline fill="none" stroke="#000000" stroke-width="1" points="70.3374,151.553 54.1214,136.183 70.3374,151.553"/>
<polyline fill="none" stroke="#000000" stroke-width="1" points="51.6474,118.797 68.513,134.372"/>
<polyline fill="none" stroke="#000000" stroke-width="1" points="70.3374,151.553 54.1214,136.183"/>
<polygon fill="#18bc9c" points="70.3374,151.553 32.6323,149.795 48.6999,165.933"/>
<polygon fill="#18bc9c" points="70.3374,151.553 54.1214,136.183 32.6323,149.795"/>
<polyline fill="none" stroke="#000000" stroke-width="1" points="32.6323,149.795 54.1214,136.183 32.6323,149.795"/>
<polygon fill="#18bc9c" points="48.6999,165.933 32.6323,149.795 35.8386,165.645"/>
<polygon fill="#18bc9c" points="48.6999,165.933 35.8386,165.645 51.3193,181.517"/>
<polyline fill="none" stroke="#000000" stroke-width="1" points="51.3193,181.517 35.8386,165.645"/>
<polyline fill="none" stroke="#000000" stroke-width="1" points="32.6323,149.795 48.6999,165.933"/>
<polyline fill="none" stroke="#000000" stroke-width="1" points="35.8386,165.645 32.6323,149.795"/>
<polyline fill="none" stroke="#000000" stroke-width="1" points="35.8386,165.645 51.3193,181.517"/>
<polyline fill="none" stroke="#000000" stroke-width="1" points="48.6999,165.933 32.6323,149.795 35.8386,165.645"/>
<polyline fill="none" stroke="#000000" stroke-width="1" points="68.513,134.372 90.0019,120.571"/>
<polyline fill="none" stroke="#000000" stroke-width="1" points="70.3374,151.553 68.513,134.372"/>
<polyline fill="none" stroke="#000000" stroke-width="1" points="90.0019,120.571 68.513,134.372 70.3374,151.553"/>
<polyline fill="none" stroke="#000000" stroke-width="1" points="68.513,134.372 70.3374,151.553"/>
<polyline fill="none" stroke="#000000" stroke-width="1" points="68.513,134.372 90.0019,120.571"/>
<polyline fill="none" stroke="#000000" stroke-width="1" points="70.3374,151.553 68.513,134.372"/>
<polyline fill="none" stroke="#000000" stroke-width="1" points="51.3193,181.517 48.6999,165.933 70.3374,151.553"/>
<polyline fill="none" stroke="#000000" stroke-width="1" points="51.3193,181.517 48.6999,165.933"/>
<polyline fill="none" stroke="#000000" stroke-width="1" points="70.3374,151.553 48.6999,165.933 51.3193,181.517"/>
<polyline fill="none" stroke="#000000" stroke-width="1" points="70.3374,151.553 48.6999,165.933 51.3193,181.517"/>
<polyline fill="none" stroke="#000000" stroke-width="1" points="48.6999,165.933 70.3374,151.553"/>
<polyline fill="none" stroke="#000000" stroke-width="1" points="90.0019,120.571 68.513,134.372"/>
<polygon fill="#18bc9c" points="107.92,136.202 90.0019,120.571 68.513,134.372"/>
<polygon fill="#18bc9c" points="107.92,136.202 68.513,134.372 86.3227,150.82"/>
<polyline fill="none" stroke="#000000" stroke-width="1" points="86.3227,150.82 107.92,136.202"/>
<polyline fill="none" stroke="#000000" stroke-width="1" points="86.3227,150.82 107.92,136.202 86.3227,150.82"/>
<polyline fill="none" stroke="#000000" stroke-width="1" points="107.92,136.202 86.3227,150.82"/>
<polygon fill="#18bc9c" points="126.842,152.709 86.3227,150.82 105.158,168.214"/>
<polygon fill="#18bc9c" points="126.842,152.709 107.92,136.202 86.3227,150.82"/>
<polyline fill="none" stroke="#000000" stroke-width="1" points="105.158,168.214 126.842,152.709 105.158,168.214 126.842,152.709 105.158,168.214"/>
<polygon fill="#18bc9c" points="146.854,170.166 105.158,168.214 125.11,186.64"/>
<polygon fill="#18bc9c" points="146.854,170.166 126.842,152.709 105.158,168.214"/>
<polygon fill="#18bc9c" points="105.158,168.214 86.3227,150.82 87.4218,167.746"/>
<polygon fill="#18bc9c" points="125.11,186.64 105.158,168.214 105.446,184.829"/>
<polygon fill="#18bc9c" points="86.3227,150.82 68.513,134.372 70.3374,151.553"/>
<polygon fill="#18bc9c" points="86.3227,150.82 70.3374,151.553 87.4218,167.746"/>
<polygon fill="#18bc9c" points="125.11,186.64 105.446,184.829 124.49,202.879"/>
<polygon fill="#18bc9c" points="105.158,168.214 87.4218,167.746 105.446,184.829"/>
<polyline fill="none" stroke="#000000" stroke-width="1" points="124.49,202.879 105.446,184.829 124.49,202.879"/>
<polyline fill="none" stroke="#000000" stroke-width="1" points="87.4218,167.746 105.446,184.829 105.158,168.214"/>
<polyline fill="none" stroke="#000000" stroke-width="1" points="87.4218,167.746 86.3227,150.82"/>
<polyline fill="none" stroke="#000000" stroke-width="1" points="125.11,186.64 105.158,168.214"/>
<polyline fill="none" stroke="#000000" stroke-width="1" points="105.446,184.829 87.4218,167.746"/>
<polyline fill="none" stroke="#000000" stroke-width="1" points="68.513,134.372 86.3227,150.82"/>
<polyline fill="none" stroke="#000000" stroke-width="1" points="87.4218,167.746 105.446,184.829"/>
<polyline fill="none" stroke="#000000" stroke-width="1" points="86.3227,150.82 68.513,134.372"/>
<polyline fill="none" stroke="#000000" stroke-width="1" points="105.446,184.829 87.4218,167.746"/>
<polyline fill="none" stroke="#000000" stroke-width="1" points="70.3374,151.553 87.4218,167.746"/>
<polyline fill="none" stroke="#000000" stroke-width="1" points="105.158,168.214 125.11,186.64"/>
<polyline fill="none" stroke="#000000" stroke-width="1" points="105.446,184.829 124.49,202.879 105.446,184.829"/>
<polyline fill="none" stroke="#000000" stroke-width="1" points="86.3227,150.82 87.4218,167.746 70.3374,151.553"/>
<polyline fill="none" stroke="#000000" stroke-width="1" points="105.158,168.214 86.3227,150.82"/>
<polyline fill="none" stroke="#000000" stroke-width="1" points="105.446,184.829 87.4218,167.746"/>
<polyline fill="none" stroke="#000000" stroke-width="1" points="70.3374,151.553 87.4218,167.746 105.446,184.829"/>
<polyline fill="none" stroke="#000000" stroke-width="1" points="105.158,168.214 105.446,184.829"/>
<polyline fill="none" stroke="#000000" stroke-width="1" points="87.4218,167.746 86.3227,150.82"/>
<polyline fill="none" stroke="#000000" stroke-width="1" points="105.446,184.829 124.49,202.879"/>
<polyline fill="none" stroke="#000000" stroke-width="1" points="87.4218,167.746 70.3374,151.553"/>
<polyline fill="none" stroke="#000000" stroke-width="1" points="105.446,184.829 105.158,168.214"/>
<polyline fill="none" stroke="#000000" stroke-width="1" points="86.3227,150.82 105.158,168.214"/>
<polyline fill="none" stroke="#000000" stroke-width="1" points="124.49,202.879 105.446,184.829"/>
<polyline fill="none" stroke="#000000" stroke-width="1" points="86.3227,150.82 87.4218,167.746"/>
<polyline fill="none" stroke="#000000" stroke-width="1" points="70.3374,151.553 87.4218,167.746"/>
<polyline fill="none" stroke="#000000" stroke-width="1" points="105.158,168.214 105.446,184.829"/>
<polyline fill="none" stroke="#000000" stroke-width="1" points="87.4218,167.746 70.3374,151.553"/>
<polygon fill="#18bc9c" points="87.4218,167.746 70.3374,151.553 48.6999,165.933"/>
<polygon fill="#18bc9c" points="87.4218,167.746 48.6999,165.933 65.651,182.958"/>
<polyline fill="none" stroke="#000000" stroke-width="1" points="87.4218,167.746 65.651,182.958"/>
<polyline fill="none" stroke="#000000" stroke-width="1" points="87.4218,167.746 65.651,182.958 87.4218,167.746"/>
<polyline fill="none" stroke="#000000" stroke-width="1" points="65.651,182.958 87.4218,167.746"/>
<polygon fill="#18bc9c" points="105.446,184.829 87.4218,167.746 65.651,182.958"/>
<polygon fill="#18bc9c" points="105.446,184.829 65.651,182.958 83.5606,200.946"/>
<polyline fill="none" stroke="#000000" stroke-width="1" points="83.5606,200.946 105.446,184.829 83.5606,200.946"/>
<polyline fill="none" stroke="#000000" stroke-width="1" points="105.446,184.829 83.5606,200.946 105.446,184.829"/>
<polygon fill="#18bc9c" points="124.49,202.879 83.5606,200.946 102.512,219.981"/>
<polygon fill="#18bc9c" points="124.49,202.879 105.446,184.829 83.5606,200.946"/>
<polygon fill="#18bc9c" points="102.512,219.981 83.5606,200.946 84.7917,215.837"/>
<polygon fill="#18bc9c" points="65.651,182.958 51.3193,181.517 67.615,198.225"/>
<polygon fill="#18bc9c" points="65.651,182.958 48.6999,165.933 51.3193,181.517"/>
<polygon fill="#18bc9c" points="102.512,219.981 84.7917,215.837 102.923,234.426"/>
<polygon fill="#18bc9c" points="83.5606,200.946 65.651,182.958 67.615,198.225"/>
<polygon fill="#18bc9c" points="83.5606,200.946 67.615,198.225 84.7917,215.837"/>
<polyline fill="none" stroke="#000000" stroke-width="1" points="84.7917,215.837 83.5606,200.946"/>
<polyline fill="none" stroke="#000000" stroke-width="1" points="48.6999,165.933 65.651,182.958 48.6999,165.933"/>
<polyline fill="none" stroke="#000000" stroke-width="1" points="84.7917,215.837 83.5606,200.946"/>
<polyline fill="none" stroke="#000000" stroke-width="1" points="65.651,182.958 67.615,198.225 51.3193,181.517 67.615,198.225"/>
<polyline fill="none" stroke="#000000" stroke-width="1" points="83.5606,200.946 65.651,182.958"/>
<polyline fill="none" stroke="#000000" stroke-width="1" points="67.615,198.225 84.7917,215.837"/>
<polyline fill="none" stroke="#000000" stroke-width="1" points="67.615,198.225 65.651,182.958"/>
<polyline fill="none" stroke="#000000" stroke-width="1" points="83.5606,200.946 84.7917,215.837"/>
<polyline fill="none" stroke="#000000" stroke-width="1" points="67.615,198.225 65.651,182.958"/>
<polyline fill="none" stroke="#000000" stroke-width="1" points="84.7917,215.837 67.615,198.225"/>
<polyline fill="none" stroke="#000000" stroke-width="1" points="83.5606,200.946 102.512,219.981 83.5606,200.946 84.7917,215.837 102.923,234.426 84.7917,215.837"/>
<polyline fill="none" stroke="#000000" stroke-width="1" points="65.651,182.958 83.5606,200.946"/>
<polyline fill="none" stroke="#000000" stroke-width="1" points="65.651,182.958 67.615,198.225"/>
<polygon fill="#18bc9c" points="145.279,186.701 146.854,170.166 125.11,186.64"/>
<polygon fill="#18bc9c" points="145.279,186.701 125.11,186.64 124.49,202.879"/>
<polyline fill="none" stroke="#000000" stroke-width="1" points="124.49,202.879 102.512,219.981 102.923,234.426"/>
<polyline fill="none" stroke="#000000" stroke-width="1" points="102.512,219.981 124.49,202.879"/>
<polyline fill="none" stroke="#000000" stroke-width="1" points="102.923,234.426 102.512,219.981"/>
<polyline fill="none" stroke="#000000" stroke-width="1" points="146.854,170.166 125.11,186.64 124.49,202.879 145.279,186.701"/>
<polyline fill="none" stroke="#000000" stroke-width="1" points="125.11,186.64 146.854,170.166"/>
<polyline fill="none" stroke="#000000" stroke-width="1" points="124.49,202.879 145.279,186.701"/>
<polyline fill="none" stroke="#000000" stroke-width="1" points="102.512,219.981 124.49,202.879"/>
<polyline fill="none" stroke="#000000" stroke-width="1" points="102.923,234.426 102.512,219.981"/>
<polyline fill="none" stroke="#000000" stroke-width="1" points="124.49,202.879 102.512,219.981 102.923,234.426"/>
<polyline fill="none" stroke="#000000" stroke-width="1" points="145.279,186.701 124.49,202.879"/>
<polyline fill="none" stroke="#000000" stroke-width="1" points="145.279,186.701 124.49,202.879 125.11,186.64"/>
<polyline fill="none" stroke="#000000" stroke-width="1" points="124.49,202.879 145.279,186.701 124.49,202.879"/>
<polygon fill="#18bc9c" points="122.6,240.157 102.512,219.981 102.923,234.426"/>
<polygon fill="#18bc9c" points="122.6,240.157 102.923,234.426 122.09,254.079"/>
<polyline fill="none" stroke="#000000" stroke-width="1" points="122.09,254.079 102.923,234.426 122.09,254.079"/>
<polygon fill="#18bc9c" points="144.643,221.979 124.49,202.879 102.512,219.981"/>
<polygon fill="#18bc9c" points="165.459,204.813 124.49,202.879 144.643,221.979"/>
<polygon fill="#18bc9c" points="165.459,204.813 145.279,186.701 124.49,202.879"/>
<polygon fill="#18bc9c" points="144.643,221.979 102.512,219.981 122.6,240.157"/>
<polyline fill="none" stroke="#000000" stroke-width="1" points="122.6,240.157 102.512,219.981 122.6,240.157"/>
<polyline fill="none" stroke="#000000" stroke-width="1" points="124.49,202.879 144.643,221.979"/>
<polyline fill="none" stroke="#000000" stroke-width="1" points="124.49,202.879 144.643,221.979 124.49,202.879"/>
<polyline fill="none" stroke="#000000" stroke-width="1" points="144.643,221.979 124.49,202.879"/>
<polygon fill="#18bc9c" points="143.152,236.341 122.6,240.157 122.09,254.079"/>
<polygon fill="#18bc9c" points="163.094,219.547 144.643,221.979 143.152,236.341"/>
<polygon fill="#18bc9c" points="163.094,219.547 165.459,204.813 144.643,221.979"/>
<polygon fill="#18bc9c" points="143.152,236.341 144.643,221.979 122.6,240.157"/>
<polyline fill="none" stroke="#000000" stroke-width="1" points="143.152,236.341 122.09,254.079"/>
<polyline fill="none" stroke="#000000" stroke-width="1" points="122.6,240.157 144.643,221.979"/>
<polyline fill="none" stroke="#000000" stroke-width="1" points="122.6,240.157 122.09,254.079"/>
<polyline fill="none" stroke="#000000" stroke-width="1" points="144.643,221.979 143.152,236.341"/>
<polyline fill="none" stroke="#000000" stroke-width="1" points="144.643,221.979 122.6,240.157"/>
<polyline fill="none" stroke="#000000" stroke-width="1" points="122.09,254.079 143.152,236.341 144.643,221.979"/>
<polyline fill="none" stroke="#000000" stroke-width="1" points="165.459,204.813 144.643,221.979 143.152,236.341 163.094,219.547 143.152,236.341 144.643,221.979"/>
<polyline fill="none" stroke="#000000" stroke-width="1" points="122.09,254.079 122.6,240.157"/>
<polyline fill="none" stroke="#000000" stroke-width="1" points="144.643,221.979 165.459,204.813"/>
</g>
</svg>
